<svg xmlns="http://www.w3.org/2000/svg" viewBox="0 0 81.53 76.29" aria-hidden="true"><defs><style>.cls-1{fill:#fff;fill-rule:evenodd;}</style></defs><path class="cls-1" d="M54.19,56.82,61,63.66l7.86-7.61v0l5.61-5.42v0l1.82-1.76L95.77,30.06l-3.33-3.45-3.33-3.45L69.65,41.91Zm4.78,9L52.16,59,48.51,69.43l10.34-3.51Zm-.19-32.57v6.6H30v-6.6Zm5.6-5.64h-40V45.48H58l6.36-6.13ZM67,22.49a2,2,0,0,1,1.9,2.08V35l1.32-1.25,4.29-4.16v-5.7c0-.08-.09-.49-.12-.73a7.66,7.66,0,0,0-5.55-6.07,10.92,10.92,0,0,0-1.69-.24H21.56c-.26,0-.55,0-.76.06-.37.06-.75.15-1.11.24s-.55.2-.75.26a8.17,8.17,0,0,0-.79.38,7.63,7.63,0,0,0-3.74,4.93c-.06.38-.12.79-.18,1.17V86.11a11.09,11.09,0,0,0,.18,1.17c.09.37.23.73.35,1.11A4.29,4.29,0,0,1,15,89a7.79,7.79,0,0,0,5.26,4c.41.06.82.15,1.23.18H67.19c.09,0,.76-.09,1.11-.15a7.16,7.16,0,0,0,1.25-.35,7.58,7.58,0,0,0,3-2,7.71,7.71,0,0,0,1.76-3.27c.08-.44.17-.87.23-1.31V58.34l-5.61,5.45V85.41A2.08,2.08,0,0,1,67,87.51H21.65a2,2,0,0,1-1.81-2.08V24.59a2.53,2.53,0,0,0,0-.46,2,2,0,0,1,1.84-1.64ZM64.34,76.91h-40v5.6h40Zm-20-11.8h-20v5.6h20Zm0-12.86h-20v5.61h20Z" transform="translate(-14.23 -16.85)"/></svg>