<svg xmlns="http://www.w3.org/2000/svg" viewBox="0 0 104 27.91"><defs><style>.cls-1{fill:#fff;}.cls-2{fill:#027abb;}</style></defs><polygon class="cls-1" points="22.42 0.12 0 27.91 104 27.91 81.31 0 22.42 0.12"/><polygon class="cls-2" points="42.74 10.32 47.72 9.81 54.23 10.66 61.7 11.74 57.2 12.2 52.1 11.91 46.3 12.03 40.14 11.91 42.74 10.32"/><polygon class="cls-2" points="23.64 12.69 26.91 13.52 26.73 13.53 30.22 11.97 30.24 11.96 30.26 11.95 32.64 11.31 32.69 11.3 32.74 11.31 35.86 11.77 35.69 11.81 37.43 10.61 37.54 10.54 37.67 10.59 40.23 11.68 40.47 11.78 40.37 12.01 39.45 14.13 39.38 14.29 39.21 14.28 37.01 14.19 37.22 14.09 36.03 15.74 35.95 15.38 38.15 16.66 38.66 16.95 38.11 17.11 34.76 18.09 34.69 17.87 37.95 16.64 37.9 17.09 35.7 15.81 35.46 15.67 35.62 15.44 36.82 13.79 36.89 13.68 37.03 13.69 39.23 13.78 38.99 13.93 39.91 11.81 40.04 12.14 37.47 11.05 37.71 11.03 35.97 12.22 35.89 12.27 35.79 12.26 32.67 11.8 32.77 11.79 30.39 12.44 30.42 12.42 26.94 13.98 26.84 14.03 26.76 13.99 23.61 12.8 23.64 12.69"/><path class="cls-2" d="M80.06,54.2l-4.29,1-.09,0-.09-.06-1.09-.73.1,0L71.91,54h-.07L71.78,54l-1.4-1.34.18.07L63.08,53l-1,0,.84-.51,3.78-2.28.07,0h.08l3.52.2-.19.08,2-2.13.09-.1.12,0c1.44.27,2.88.51,4.33.7h0c1.81.07,3.63.1,5.44,0h.1l.08.08,1,1-.41.08.82-2,.11-.27.23.14L86,49.2l-2.12-.69.33-.13-.82,2-.15.35L83,50.48l-1-1,.17.08c-1.81-.17-3.62-.23-5.44-.26h0c-1.45-.19-2.9-.34-4.36-.46l.22-.08-2,2.13-.08.09h-.12l-3.52-.2.14,0L63.2,53l-.14-.47,7.48-.33h.1l.08.08,1.4,1.34L72,53.53l2.69.42h0l0,0,1.09.74-.18,0Z" transform="translate(-3 -41.04)"/></svg>