<svg xmlns="http://www.w3.org/2000/svg" viewBox="0 0 93.94 98.03"><defs><style>.cls-1{fill:#fff;}</style></defs><path class="cls-1" d="M60.73,41.28a2,2,0,0,0,2,1.47H96.32a2,2,0,0,0,2-1.47L101.88,29a2,2,0,0,0-3.76-1.54c-.78,1.48-4.15,3-8.4,3-4.68,0-8.17-2.15-8.17-4.08V14.16a8.17,8.17,0,0,0-16.34,0v2a2,2,0,0,0,4.09,0v-2a4.08,4.08,0,1,1,8.16,0V26.41c0,1.93-3.49,4.08-8.16,4.08-4.26,0-7.63-1.52-8.41-3a2.06,2.06,0,0,0-2.58-.93A2,2,0,0,0,57.13,29Zm-43.41.26A2,2,0,1,0,21,39.87L16.38,29.5a2,2,0,0,1,1-2.7L36,18.42a2,2,0,0,1,2.69,1l9.94,22.1a2.06,2.06,0,0,0,1.87,1.21,2.08,2.08,0,0,0,.84-.18,2,2,0,0,0,1-2.7l-9.93-22.1a6.14,6.14,0,0,0-8.1-3.07L15.73,23.08a6.13,6.13,0,0,0-3.07,8.1ZM21,27.64a2,2,0,0,0-2,2,2.05,2.05,0,1,0,2.06-2ZM99.93,46.83H10.07a2,2,0,0,0-2,2V85.63A18.4,18.4,0,0,0,26.41,104H83.59A18.4,18.4,0,0,0,102,85.63V48.87A2,2,0,0,0,99.93,46.83ZM56.43,91.15a2,2,0,1,1-2.86-2.86,2,2,0,0,1,2.86,0,2,2,0,0,1,0,2.86ZM57.05,78v3.52a2,2,0,0,1-4.09,0V76.44a2,2,0,0,1,1.53-2l.45-.11c3.06-.7,6.18-1.92,6.18-5.57a6.18,6.18,0,0,0-12.26-.35,2,2,0,0,1-2.18,1.9,2.05,2.05,0,0,1-1.9-2.18,10.26,10.26,0,0,1,20.43.63C65.22,73.38,62.47,76.48,57.05,78Z" transform="translate(-8.03 -5.99)"/></svg>