<?xml version="1.0" encoding="utf-8"?>
<!-- Generator: Adobe Illustrator 23.0.1, SVG Export Plug-In . SVG Version: 6.00 Build 0)  -->
<svg version="1.1" id="Layer_1" xmlns="http://www.w3.org/2000/svg" xmlns:xlink="http://www.w3.org/1999/xlink" x="0px" y="0px"
	 viewBox="0 0 100.6 100.8" style="enable-background:new 0 0 100.6 100.8;" xml:space="preserve">
<style type="text/css">
	.st0{fill:#FFFFFF;}
</style>
<title>Name Sign Issue</title>
<polygon class="st0" points="0,8.5 0,41.5 3.9,42.1 19.6,18 38.6,47.3 100.6,56.6 100.6,23.6 "/>
<path class="st0" d="M19.6,23.8L0.2,53.7H39L19.6,23.8z M21.3,50.2h-3.5v-3.5h3.5V50.2z M17.8,43.2V32.8h3.5v10.5L17.8,43.2z"/>
<path class="st0" d="M57.8,12.1V6.3c0.1-3.5-2.6-6.4-6-6.5s-6.4,2.6-6.5,6c0,0.2,0,0.3,0,0.5v3.9L57.8,12.1z"/>
<path class="st0" d="M45.2,53.4v47.4h12.6V55.3L45.2,53.4z"/>
<polygon class="st0" points="90.6,17 90.6,6 60,12.4 "/>
</svg>
