<svg id="Layer_1" data-name="Layer 1" xmlns="http://www.w3.org/2000/svg" viewBox="0 0 110 110"><defs><style>.cls-1{fill:#fff;}</style></defs><title>MDC 311 Website Icons Seperate</title><path class="cls-1" d="M76.54,3H33.46L3,33.46V76.54L33.46,107H76.54L107,76.54V33.46ZM104.1,75.34,75.34,104.1H34.66L5.9,75.34V34.66L34.66,5.9H75.34L104.1,34.66Z"/><path class="cls-1" d="M66.08,43.86H63.72a1.46,1.46,0,0,0-1.62,1.63V64.28a1.44,1.44,0,0,0,1.62,1.62h2.36a1.44,1.44,0,0,0,1.63-1.62V45.49A1.46,1.46,0,0,0,66.08,43.86Z"/><path class="cls-1" d="M87.15,44H83.57v10.9h3.58a1.46,1.46,0,0,0,1.63-1.62V45.61A1.45,1.45,0,0,0,87.15,44Z"/><path class="cls-1" d="M74.45,8.05H35.55L8,35.55v38.9L35.55,102h38.9L102,74.45V35.55ZM33.51,48.78a.58.58,0,0,1-.65.65H28.63a.59.59,0,0,1-.65-.65V45.61A1.45,1.45,0,0,0,26.35,44h-2a1.48,1.48,0,0,0-1.63,1.63v5.61l9.68,3.17a1.51,1.51,0,0,1,1.06,1.51v9.39c0,3.83-2,5.86-5.86,5.86H23.1c-3.78,0-5.86-2-5.86-5.86V61a.59.59,0,0,1,.65-.65h4.23a.57.57,0,0,1,.65.65v3.14a1.46,1.46,0,0,0,1.63,1.62h2A1.44,1.44,0,0,0,28,64.16V58.75l-9.64-3.18a1.45,1.45,0,0,1-1.1-1.5v-9.6c0-3.82,2.08-5.85,5.86-5.85h4.55c3.83,0,5.86,2,5.86,5.85Zm19.72-5.45a.58.58,0,0,1-.65.65H47.86V70.5c0,.45-.2.65-.65.65H43a.58.58,0,0,1-.65-.65V44H37.62a.59.59,0,0,1-.65-.65V39.27a.59.59,0,0,1,.65-.65h15a.58.58,0,0,1,.65.65ZM73,65.29c0,3.83-2,5.86-5.86,5.86H62.55c-3.83,0-5.86-2-5.86-5.86V44.47c0-3.82,2-5.85,5.86-5.85H67.1c3.82,0,5.86,2,5.86,5.85Zm21.35-10.9c0,3.79-2,5.86-5.86,5.86H83.57V70.5a.58.58,0,0,1-.65.65H78.69A.59.59,0,0,1,78,70.5V39.27a.59.59,0,0,1,.65-.65h9.76c3.82,0,5.86,2,5.86,5.85Z"/></svg>