<svg xmlns="http://www.w3.org/2000/svg" viewBox="0 0 96.49 96.5"><defs><style>.cls-1{fill:#fff;}</style></defs><path class="cls-1" d="M43,29.05A27.79,27.79,0,0,0,18.87,43a27.84,27.84,0,0,0,48.24,0A27.8,27.8,0,0,0,43,29.05Zm0,23.36A9.39,9.39,0,0,1,33.55,43,9.52,9.52,0,0,1,43,33.55a9.43,9.43,0,0,1,0,18.86Z" transform="translate(-6.76 -6.75)"/><circle class="cls-1" cx="36.23" cy="36.23" r="3.32"/><path class="cls-1" d="M101.62,93,72.57,64A36.21,36.21,0,1,0,64,72.57l29.15,29.15a5.37,5.37,0,0,0,7.51,0l1.07-1.07A5.39,5.39,0,0,0,101.62,93Zm-80-28.73a30.17,30.17,0,1,1,42.66,0A30.15,30.15,0,0,1,21.66,64.31Z" transform="translate(-6.76 -6.75)"/></svg>