<svg xmlns="http://www.w3.org/2000/svg" viewBox="0 0 89.65 99.7"><defs><style>.cls-1{fill:#fff;}</style></defs><path class="cls-1" d="M94.13,48.1a2,2,0,0,0-1.42-3.4h-18V39.29H63.45l15.93-24.5h-4.7v-5a5,5,0,0,0-5-5H39.76a5,5,0,0,0-5,5v5H16.84a2,2,0,0,0-1.42,3.4L34.78,34.73v10H16.84a2,2,0,0,0-1.42,3.4L34.78,64.64v10H16.84A2,2,0,0,0,15.42,78L34.78,94.55v5a5,5,0,0,0,5,5H69.67a5,5,0,0,0,5-5v-5L94.11,78a2,2,0,0,0-1.42-3.4h-18v-10ZM54.72,14.79a10,10,0,1,1-10,10A10,10,0,0,1,54.72,14.79Zm0,79.76a10,10,0,1,1,10-10A10,10,0,0,1,54.72,94.55Zm0-29.91a10,10,0,1,1,10-10A10,10,0,0,1,54.72,64.64Z" transform="translate(-14.83 -4.82)"/><path class="cls-1" d="M86.73,9,69,36.29h35.5Zm1.59,24.13H85.14V29.93h3.18Zm-3.18-6.37V17.2h3.18v9.54Z" transform="translate(-14.83 -4.82)"/></svg>